<?xml version="1.0" encoding="iso-8859-1"?>
<!-- Uploaded to: SVG Repo, www.svgrepo.com, Generator: SVG Repo Mixer Tools -->
<svg height="800px" width="800px" version="1.1" id="Layer_1" xmlns="http://www.w3.org/2000/svg" xmlns:xlink="http://www.w3.org/1999/xlink" 
	 viewBox="0 0 512 512" xml:space="preserve">
<path style="fill:#00D8E0;" d="M430.064,24.441H81.935c-21.794,0-39.526,17.731-39.526,39.526v408.507
	c0,21.794,17.731,39.526,39.526,39.526h348.13c21.794,0,39.526-17.732,39.526-39.526V63.967
	C469.59,42.173,451.859,24.441,430.064,24.441z"/>
<path style="fill:#B9F7F9;" d="M255.999,24.441H81.935c-21.794,0-39.526,17.731-39.526,39.526v408.507
	c0,21.794,17.731,39.526,39.526,39.526H256V24.441H255.999z"/>
<path style="fill:#A2A9B0;" d="M99.825,77.28c-9.513,0-17.225-7.712-17.225-17.225v-42.83C82.6,7.712,90.312,0,99.825,0
	s17.225,7.712,17.225,17.225v42.83C117.05,69.567,109.338,77.28,99.825,77.28z"/>
<path style="fill:#CFCDCF;" d="M99.825,77.28c-9.513,0-17.225-7.712-17.225-17.225v-42.83C82.6,7.712,90.312,0,99.825,0V77.28z"/>
<path style="fill:#A2A9B0;" d="M162.295,77.28c-9.513,0-17.225-7.712-17.225-17.225v-42.83C145.069,7.712,152.782,0,162.295,0
	s17.225,7.712,17.225,17.225v42.83C179.52,69.567,171.807,77.28,162.295,77.28z"/>
<path style="fill:#CFCDCF;" d="M162.295,77.28c-9.513,0-17.225-7.712-17.225-17.225v-42.83C145.069,7.712,152.782,0,162.295,0V77.28
	z"/>
<path style="fill:#A2A9B0;" d="M224.764,77.28c-9.513,0-17.225-7.712-17.225-17.225v-42.83C207.539,7.712,215.251,0,224.764,0
	c9.513,0,17.225,7.712,17.225,17.225v42.83C241.989,69.567,234.277,77.28,224.764,77.28z"/>
<path style="fill:#CFCDCF;" d="M224.764,77.28c-9.513,0-17.225-7.712-17.225-17.225v-42.83C207.539,7.712,215.251,0,224.764,0V77.28
	z"/>
<path style="fill:#A2A9B0;" d="M287.234,77.28c-9.513,0-17.225-7.712-17.225-17.225v-42.83C270.009,7.712,277.721,0,287.234,0
	s17.225,7.712,17.225,17.225v42.83C304.459,69.567,296.746,77.28,287.234,77.28z"/>
<path style="fill:#CFCDCF;" d="M287.234,77.28c-9.513,0-17.225-7.712-17.225-17.225v-42.83C270.009,7.712,277.721,0,287.234,0V77.28
	z"/>
<path style="fill:#A2A9B0;" d="M349.703,77.28c-9.513,0-17.225-7.712-17.225-17.225v-42.83C332.478,7.712,340.19,0,349.703,0
	s17.225,7.712,17.225,17.225v42.83C366.928,69.567,359.216,77.28,349.703,77.28z"/>
<path style="fill:#CFCDCF;" d="M349.703,77.28c-9.513,0-17.225-7.712-17.225-17.225v-42.83C332.478,7.712,340.19,0,349.703,0V77.28z
	"/>
<path style="fill:#A2A9B0;" d="M412.173,77.28c-9.513,0-17.225-7.712-17.225-17.225v-42.83C394.948,7.712,402.66,0,412.173,0
	s17.225,7.712,17.225,17.225v42.83C429.398,69.567,421.686,77.28,412.173,77.28z"/>
<path style="fill:#CFCDCF;" d="M412.173,77.28c-9.513,0-17.225-7.712-17.225-17.225v-42.83C394.948,7.712,402.66,0,412.173,0V77.28z
	"/>
<g>
	<path style="fill:#FFFFFF;" d="M153.045,242.419h-15.95c-21.794,0-39.526-17.731-39.526-39.526s17.731-39.526,39.526-39.526h15.95
		c21.794,0,39.526,17.731,39.526,39.526C192.57,224.687,174.839,242.419,153.045,242.419z"/>
	<path style="fill:#FFFFFF;" d="M153.045,349.856h-15.95c-21.794,0-39.526-17.731-39.526-39.526
		c0-21.794,17.731-39.526,39.526-39.526h15.95c21.794,0,39.526,17.731,39.526,39.526
		C192.57,332.124,174.839,349.856,153.045,349.856z"/>
	<path style="fill:#FFFFFF;" d="M153.045,457.294h-15.95c-21.794,0-39.526-17.731-39.526-39.526s17.731-39.526,39.526-39.526h15.95
		c21.794,0,39.526,17.732,39.526,39.526C192.57,439.563,174.839,457.294,153.045,457.294z"/>
</g>
<path style="fill:#555559;" d="M384.081,197.816H242.832c-9.513,0-17.225-7.712-17.225-17.225c0-9.513,7.712-17.225,17.225-17.225
	h141.249c9.513,0,17.225,7.712,17.225,17.225C401.306,190.104,393.595,197.816,384.081,197.816z"/>
<path style="fill:#AEADB3;" d="M255.999,197.816h-13.167c-9.513,0-17.225-7.712-17.225-17.225c0-9.513,7.712-17.225,17.225-17.225
	h13.167V197.816z"/>
<path style="fill:#555559;" d="M384.081,242.419H242.832c-9.513,0-17.225-7.712-17.225-17.225c0-9.513,7.712-17.225,17.225-17.225
	h141.249c9.513,0,17.225,7.712,17.225,17.225C401.306,234.706,393.595,242.419,384.081,242.419z"/>
<path style="fill:#AEADB3;" d="M255.999,242.419h-13.167c-9.513,0-17.225-7.712-17.225-17.225c0-9.513,7.712-17.225,17.225-17.225
	h13.167V242.419z"/>
<path style="fill:#555559;" d="M384.081,305.254H242.832c-9.513,0-17.225-7.712-17.225-17.225s7.712-17.225,17.225-17.225h141.249
	c9.513,0,17.225,7.712,17.225,17.225S393.595,305.254,384.081,305.254z"/>
<path style="fill:#AEADB3;" d="M255.999,305.254h-13.167c-9.513,0-17.225-7.712-17.225-17.225s7.712-17.225,17.225-17.225h13.167
	V305.254z"/>
<path style="fill:#555559;" d="M384.081,349.856H242.832c-9.513,0-17.225-7.712-17.225-17.225c0-9.513,7.712-17.225,17.225-17.225
	h141.249c9.513,0,17.225,7.712,17.225,17.225C401.306,342.144,393.595,349.856,384.081,349.856z"/>
<path style="fill:#AEADB3;" d="M255.999,349.856h-13.167c-9.513,0-17.225-7.712-17.225-17.225c0-9.513,7.712-17.225,17.225-17.225
	h13.167V349.856z"/>
<path style="fill:#555559;" d="M384.081,412.692H242.832c-9.513,0-17.225-7.712-17.225-17.225s7.712-17.225,17.225-17.225h141.249
	c9.513,0,17.225,7.712,17.225,17.225S393.595,412.692,384.081,412.692z"/>
<path style="fill:#AEADB3;" d="M255.999,412.692h-13.167c-9.513,0-17.225-7.712-17.225-17.225s7.712-17.225,17.225-17.225h13.167
	V412.692z"/>
<path style="fill:#555559;" d="M384.081,457.294H242.832c-9.513,0-17.225-7.712-17.225-17.225s7.712-17.225,17.225-17.225h141.249
	c9.513,0,17.225,7.712,17.225,17.225S393.595,457.294,384.081,457.294z"/>
<path style="fill:#AEADB3;" d="M255.999,457.294h-13.167c-9.513,0-17.225-7.712-17.225-17.225s7.712-17.225,17.225-17.225h13.167
	V457.294z"/>
</svg>